<svg width="164" height="46" fill="none" xmlns="http://www.w3.org/2000/svg"><g clip-path="url(#a)" fill="#3C388D"><path d="M.678 36.29h7.854v1.571H5.404v7.424H3.806v-7.424H.678v-1.57ZM11.753 41.446V36.29h1.598v5.114c0 .734.215 1.338.644 1.813.43.474.989.711 1.678.711.707 0 1.273-.237 1.698-.711.426-.475.638-1.079.638-1.813v-5.114h1.611v5.155c0 1.226-.36 2.208-1.08 2.946-.721.739-1.672 1.108-2.853 1.108-1.182 0-2.133-.37-2.853-1.108-.72-.738-1.08-1.72-1.08-2.946ZM25.688 36.29h4.524v1.571h-4.43c-.287 0-.515.083-.685.249a.79.79 0 0 0-.255.584c0 .197.06.376.181.537.121.16.298.268.53.322l3.263.779c.644.16 1.136.467 1.476.919.34.452.51.95.51 1.497 0 .69-.235 1.284-.704 1.785-.47.502-1.117.752-1.94.752h-4.726v-1.57h4.659c.304 0 .546-.095.725-.283a.908.908 0 0 0 .067-1.214.94.94 0 0 0-.564-.343l-3.275-.778c-.636-.153-1.117-.45-1.443-.893a2.418 2.418 0 0 1-.49-1.47c0-.662.228-1.235.684-1.718.456-.484 1.087-.725 1.893-.725ZM34.199 41.446V36.29h1.597v5.114c0 .734.215 1.338.645 1.813.43.474.988.711 1.678.711.707 0 1.273-.237 1.698-.711.425-.475.638-1.079.638-1.813v-5.114h1.61v5.155c0 1.226-.36 2.208-1.08 2.946-.72.739-1.671 1.108-2.853 1.108-1.181 0-2.132-.37-2.853-1.108-.72-.738-1.08-1.72-1.08-2.946ZM47.69 45.285h-1.61v-8.994h4.564c.894 0 1.62.221 2.174.664.555.443.833 1.059.833 1.846 0 .832-.296 1.459-.886 1.88v.04c.706.17 1.06.703 1.06 1.597v2.967h-1.61v-2.658c0-.376-.207-.564-.618-.564H47.69v3.222Zm0-7.424v2.699h2.846c.448 0 .81-.123 1.087-.37.278-.245.416-.575.416-.986 0-.403-.143-.727-.429-.973-.287-.247-.644-.37-1.074-.37H47.69ZM63.074 41.446V36.29h1.598v5.114c0 .734.215 1.338.644 1.813.43.474.989.711 1.678.711.707 0 1.273-.237 1.698-.711.426-.475.638-1.079.638-1.813v-5.114h1.611v5.155c0 1.226-.36 2.208-1.08 2.946-.721.739-1.672 1.108-2.853 1.108-1.182 0-2.133-.37-2.853-1.108-.72-.738-1.08-1.72-1.08-2.946ZM81.6 42.64v-6.35h1.61v8.995H81.6l-5.034-6.766v6.766h-1.611v-8.994h1.88l4.765 6.35ZM87.466 45.285v-8.994h1.611v8.994h-1.611ZM97.024 43.325l2.927-7.034h1.731l-3.812 8.994h-1.76L92.3 36.291h1.758l2.967 7.034ZM111.589 45.285h-6.779v-8.994h6.779v1.57h-5.168v2.054h4.671v1.517h-4.671v2.282h5.168v1.571ZM117.08 45.285h-1.611v-8.994h4.564c.895 0 1.62.221 2.175.664.554.443.832 1.059.832 1.846 0 .832-.295 1.459-.886 1.88v.04c.707.17 1.06.703 1.06 1.597v2.967h-1.611v-2.658c0-.376-.206-.564-.617-.564h-3.907v3.222h.001Zm0-7.424v2.699h2.845c.448 0 .81-.123 1.088-.37.277-.245.416-.575.416-.986 0-.403-.143-.727-.43-.973-.286-.247-.644-.37-1.074-.37h-2.845ZM129.296 36.29h4.524v1.571h-4.43c-.287 0-.515.083-.685.249a.79.79 0 0 0-.255.584c0 .197.06.376.181.537a.884.884 0 0 0 .531.322l3.262.779c.644.16 1.136.467 1.476.919.34.452.51.95.51 1.497a2.52 2.52 0 0 1-.704 1.785c-.47.502-1.117.752-1.94.752h-4.725v-1.57h4.658c.304 0 .546-.095.725-.283a.912.912 0 0 0 .067-1.214.94.94 0 0 0-.564-.343l-3.275-.778c-.636-.153-1.117-.45-1.444-.893a2.417 2.417 0 0 1-.49-1.47c0-.662.229-1.235.685-1.718.456-.484 1.087-.725 1.893-.725ZM138.075 45.285v-8.994h1.611v8.994h-1.611ZM143.163 36.29h7.853v1.571h-3.128v7.424h-1.598v-7.424h-3.127v-1.57ZM160.587 36.29h1.867l-3.679 5.303v3.692h-1.611v-3.624l-3.678-5.37h1.906l2.591 3.853 2.604-3.853Z"/><path fill-rule="evenodd" clip-rule="evenodd" d="m17.566 28.11.041-21.795h10.816V.5H.001v5.815h10.816v21.794h6.75ZM155.857.5H135.16l-.041 27.569h6.79v-6.75h13.907a8 8 0 0 0 8.01-8.01V8.51c.041-4.432-3.537-8.01-7.969-8.01Zm1.382 15.126h-15.33V6.315h15.33v9.311ZM76.322 28.11H93.93v-5.815H75.102V6.315H93.93V.5H76.322a8 8 0 0 0-8.01 8.01V20.1a8 8 0 0 0 8.01 8.01ZM51.004 28.069 65.624.5H58.66l-8.913 16.806L39.857.5h-6.964l10.65 18.404c.854 1.475 2.394 2.38 4.059 2.383h.034L44.04 28.07h6.964ZM112.981 21.287h.033l-3.596 6.782h6.964L131.003.5h-6.965l-8.912 16.806L105.236.5h-6.964l10.65 18.405c.853 1.474 2.394 2.378 4.059 2.383Z"/></g><defs><clipPath id="a"><path fill="#fff" transform="translate(0 .5)" d="M0 0h163.827v45H0z"/></clipPath></defs></svg>